<?xml version="1.0" encoding="UTF-8"?>
<svg width="24" height="24" viewBox="0 0 24 24" fill="none" xmlns="http://www.w3.org/2000/svg">
  <rect x="2" y="6" width="20" height="12" rx="2" fill="white"/>
  <rect x="2" y="6" width="20" height="1" fill="#B22234"/>
  <rect x="2" y="8" width="20" height="1" fill="#B22234"/>
  <rect x="2" y="10" width="20" height="1" fill="#B22234"/>
  <rect x="2" y="12" width="20" height="1" fill="#B22234"/>
  <rect x="2" y="14" width="20" height="1" fill="#B22234"/>
  <rect x="2" y="16" width="20" height="1" fill="#B22234"/>
  <rect x="2" y="6" width="10" height="7" fill="#3C3B6E"/>
  <circle cx="4" cy="7.5" r="0.5" fill="white"/>
  <circle cx="6" cy="7.5" r="0.5" fill="white"/>
  <circle cx="8" cy="7.5" r="0.5" fill="white"/>
  <circle cx="10" cy="7.5" r="0.5" fill="white"/>
  <circle cx="5" cy="8.5" r="0.5" fill="white"/>
  <circle cx="7" cy="8.5" r="0.5" fill="white"/>
  <circle cx="9" cy="8.5" r="0.5" fill="white"/>
  <circle cx="4" cy="9.5" r="0.5" fill="white"/>
  <circle cx="6" cy="9.5" r="0.5" fill="white"/>
  <circle cx="8" cy="9.5" r="0.5" fill="white"/>
  <circle cx="10" cy="9.5" r="0.5" fill="white"/>
  <circle cx="5" cy="10.5" r="0.5" fill="white"/>
  <circle cx="7" cy="10.5" r="0.5" fill="white"/>
  <circle cx="9" cy="10.5" r="0.5" fill="white"/>
  <circle cx="4" cy="11.5" r="0.5" fill="white"/>
  <circle cx="6" cy="11.5" r="0.5" fill="white"/>
  <circle cx="8" cy="11.5" r="0.5" fill="white"/>
  <circle cx="10" cy="11.5" r="0.5" fill="white"/>
</svg>
